<svg width="234" height="24" viewBox="0 0 234 24" fill="none" xmlns="http://www.w3.org/2000/svg">
<path d="M3.81795 14.5461V2.73112H1.64507V1.44098H12.6113V2.73112H11.1175V16.04C11.1175 18.8919 10.5742 20.8498 9.4878 21.9136C8.424 22.9774 6.93015 23.5093 5.00624 23.5093C3.55766 23.5093 2.21093 23.3395 0.966049 23L1.74693 17.2283H6.05873V15.4289C6.05873 15.1573 6.00215 14.9536 5.88898 14.8178C5.73054 14.6367 5.44761 14.5461 5.04019 14.5461H3.81795ZM22.7147 23H13.9214V21.7099H15.4152V2.73112H13.9214V1.44098H22.7147V11.4905H27.8074V1.44098H36.6008V2.73112H35.1069V21.7099H36.6008V23H27.8074V13.3579H22.7147V23ZM57.9744 10.3022V14.1048C57.9744 15.9381 57.7594 17.5904 57.3293 19.0617C57.0577 19.9897 56.4353 20.9403 55.462 21.9136C55.0319 22.3436 54.1266 22.7623 52.7459 23.1698C51.6821 23.4866 49.43 23.5885 45.9896 23.4753C44.4958 23.43 43.5338 23.3395 43.1038 23.2037C42.6963 23.0679 42.2323 22.8981 41.7118 22.6944C41.2138 22.4681 40.8177 22.2078 40.5235 21.9136C40.2519 21.5967 39.9463 21.2006 39.6068 20.7253C39.2899 20.25 39.0522 19.6954 38.8938 19.0617C38.4864 17.6131 38.2827 15.9608 38.2827 14.1048V10.3022C38.2827 8.49151 38.4864 6.97502 38.8938 5.75278C39.3012 4.5079 39.7652 3.5799 40.2858 2.96878C40.8064 2.33502 41.6099 1.85971 42.6963 1.54283C43.7828 1.22595 44.6881 1.04488 45.4124 0.999611C46.1367 0.954342 47.0308 0.931707 48.0946 0.931707C49.181 0.931707 49.9053 0.943024 50.2675 0.965658C50.6296 0.965658 51.1276 0.988293 51.7613 1.03356C52.4177 1.07883 52.9157 1.15805 53.2552 1.27122C53.5947 1.38439 54.0134 1.55415 54.5114 1.78049C55.0319 1.9842 55.428 2.24449 55.6997 2.56137C55.9939 2.85561 56.2995 3.24039 56.6163 3.71571C56.9559 4.19102 57.2048 4.73424 57.3633 5.34537C57.7707 6.77132 57.9744 8.42361 57.9744 10.3022ZM50.6749 21.0648V3.34224H45.5822V21.0648H50.6749ZM59.6759 2.73112V1.44098H72.7471L77.5343 20.9629H78.9263L76.1762 1.44098H82.6609V2.73112H81.167V23H69.5897L65.21 3.47805H63.818L66.1606 23H59.6759V21.7099H61.1698V2.73112H59.6759ZM102.813 1.44098V8.50283H98.8408L97.992 3.81756H96.0568L96.8037 9.52137V21.7099H99.6556V23H86.6523V21.7099H89.5042V9.52137L90.2511 3.81756H88.3159L87.4671 8.70654H83.4948V1.44098H102.813ZM112.798 23H104.005V21.7099H105.499V2.73112H104.005V1.44098H115.956C118.219 1.44098 119.634 1.49756 120.2 1.61073C120.765 1.7239 121.297 1.85971 121.795 2.01815C122.293 2.15395 122.678 2.33502 122.95 2.56137C123.244 2.76507 123.549 3.02537 123.866 3.34224C124.183 3.65912 124.421 4.03259 124.579 4.46264C124.987 5.4359 125.19 6.55629 125.19 7.8238C125.19 9.88351 124.76 11.3774 123.9 12.3054C123.04 13.2334 121.807 13.8219 120.2 14.0708V14.8517H121.727C122.497 14.8517 123.029 14.9988 123.323 15.2931C123.617 15.5647 123.81 16.0966 123.9 16.8888L124.477 21.7099H126.277V23H117.891V15.8702H112.798V23ZM117.891 13.4258V3.81756H112.798V13.4258H117.891ZM127.322 2.73112V1.44098H142.668L145.791 21.7099H147.217V23H125.081V21.7099H126.473L129.427 2.73112H127.322ZM132.584 3.47805V16.04H136.726L135.606 3.47805H132.584ZM132.584 23H137.371L136.896 17.9073H132.584V23ZM161.971 12.0677V12.8486H163.499C164.269 12.8486 164.778 12.9731 165.027 13.222C165.298 13.471 165.513 13.9916 165.672 14.7838L167.03 21.7099H168.965V23H160.579L158.542 13.3579H156.166V23H147.372V21.7099H148.866V2.73112H147.372V1.44098H156.166V11.4905H158.644L160.579 1.44098H168.626V2.73112H166.86L164.687 9.92878C164.325 11.1963 163.42 11.9093 161.971 12.0677ZM188.619 1.44098V8.50283H184.647L183.798 3.81756H181.863L182.61 9.52137V21.7099H185.462V23H172.459V21.7099H175.311V9.52137L176.058 3.81756H174.122L173.274 8.70654H169.301V1.44098H188.619ZM209.163 10.3022V14.1048C209.163 15.9381 208.948 17.5904 208.518 19.0617C208.247 19.9897 207.624 20.9403 206.651 21.9136C206.221 22.3436 205.316 22.7623 203.935 23.1698C202.871 23.4866 200.619 23.5885 197.179 23.4753C195.685 23.43 194.723 23.3395 194.293 23.2037C193.885 23.0679 193.421 22.8981 192.901 22.6944C192.403 22.4681 192.007 22.2078 191.712 21.9136C191.441 21.5967 191.135 21.2006 190.796 20.7253C190.479 20.25 190.241 19.6954 190.083 19.0617C189.675 17.6131 189.472 15.9608 189.472 14.1048V10.3022C189.472 8.49151 189.675 6.97502 190.083 5.75278C190.49 4.5079 190.954 3.5799 191.475 2.96878C191.995 2.33502 192.799 1.85971 193.885 1.54283C194.972 1.22595 195.877 1.04488 196.601 0.999611C197.326 0.954342 198.22 0.931707 199.284 0.931707C200.37 0.931707 201.094 0.943024 201.456 0.965658C201.819 0.965658 202.317 0.988293 202.95 1.03356C203.607 1.07883 204.105 1.15805 204.444 1.27122C204.784 1.38439 205.202 1.55415 205.7 1.78049C206.221 1.9842 206.617 2.24449 206.889 2.56137C207.183 2.85561 207.488 3.24039 207.805 3.71571C208.145 4.19102 208.394 4.73424 208.552 5.34537C208.96 6.77132 209.163 8.42361 209.163 10.3022ZM201.864 21.0648V3.34224H196.771V21.0648H201.864ZM219.658 23H210.865V21.7099H212.359V2.73112H210.865V1.44098H222.816C225.079 1.44098 226.494 1.49756 227.06 1.61073C227.626 1.7239 228.157 1.85971 228.655 2.01815C229.153 2.15395 229.538 2.33502 229.81 2.56137C230.104 2.76507 230.41 3.02537 230.726 3.34224C231.043 3.65912 231.281 4.03259 231.439 4.46264C231.847 5.4359 232.051 6.55629 232.051 7.8238C232.051 9.88351 231.62 11.3774 230.76 12.3054C229.9 13.2334 228.667 13.8219 227.06 14.0708V14.8517H228.587C229.357 14.8517 229.889 14.9988 230.183 15.2931C230.477 15.5647 230.67 16.0966 230.76 16.8888L231.338 21.7099H233.137V23H224.751V15.8702H219.658V23ZM224.751 13.4258V3.81756H219.658V13.4258H224.751Z" fill="white"/>
</svg>
