<svg width="282" height="28" viewBox="0 0 282 28" fill="none" xmlns="http://www.w3.org/2000/svg">
<path d="M4.40098 16.7971V2.53756H1.77854V0.980486H15.0137V2.53756H13.2107V18.6C13.2107 22.042 12.5551 24.4049 11.2439 25.6888C9.96 26.9727 8.15707 27.6146 5.83512 27.6146C4.08683 27.6146 2.46146 27.4098 0.959024 27L1.90146 20.0341H7.10537V17.8624C7.10537 17.5346 7.03707 17.2888 6.90049 17.1249C6.70927 16.9063 6.36781 16.7971 5.8761 16.7971H4.40098ZM27.2074 27H16.5947V25.4429H18.3977V2.53756H16.5947V0.980486H27.2074V13.1093H33.3538V0.980486H43.9664V2.53756H42.1635V25.4429H43.9664V27H33.3538V15.3629H27.2074V27ZM69.7622 11.6751V16.2644C69.7622 18.4771 69.5027 20.4712 68.9837 22.2468C68.6559 23.3668 67.9046 24.5141 66.73 25.6888C66.211 26.2078 65.1183 26.7132 63.4519 27.2049C62.168 27.5873 59.45 27.7102 55.2978 27.5737C53.4949 27.519 52.3339 27.4098 51.8149 27.2459C51.3232 27.082 50.7632 26.8771 50.1349 26.6312C49.5339 26.358 49.0559 26.0439 48.7007 25.6888C48.3729 25.3063 48.0041 24.8283 47.5944 24.2546C47.2119 23.681 46.9251 23.0117 46.7339 22.2468C46.2422 20.4985 45.9963 18.5044 45.9963 16.2644V11.6751C45.9963 9.48976 46.2422 7.65951 46.7339 6.18439C47.2256 4.68195 47.7856 3.56195 48.4139 2.82439C49.0422 2.05951 50.0119 1.48585 51.3232 1.10341C52.6344 0.720975 53.7271 0.502439 54.6012 0.447805C55.4754 0.39317 56.5544 0.365853 57.8383 0.365853C59.1495 0.365853 60.0237 0.379511 60.4607 0.406828C60.8978 0.406828 61.4988 0.434145 62.2637 0.48878C63.0559 0.543414 63.6568 0.639023 64.0666 0.775608C64.4763 0.912194 64.9817 1.11707 65.5827 1.39024C66.211 1.6361 66.689 1.95024 67.0168 2.33268C67.3719 2.6878 67.7407 3.15219 68.1232 3.72585C68.5329 4.29951 68.8334 4.95512 69.0246 5.69268C69.5163 7.41366 69.7622 9.4078 69.7622 11.6751ZM60.9524 24.6644V3.27512H54.8061V24.6644H60.9524ZM71.8158 2.53756V0.980486H87.5914L93.369 24.5415H95.0489L91.7299 0.980486H99.5563V2.53756H97.7533V27H83.7807L78.4948 3.43902H76.8148L79.6421 27H71.8158V25.4429H73.6187V2.53756H71.8158ZM123.878 0.980486V9.50341H119.084L118.059 3.84878H115.724L116.625 10.7327V25.4429H120.067V27H104.373V25.4429H107.815V10.7327L108.717 3.84878H106.381L105.357 9.74927H100.563V0.980486H123.878ZM135.929 27H125.316V25.4429H127.119V2.53756H125.316V0.980486H139.74C142.471 0.980486 144.179 1.04878 144.862 1.18536C145.544 1.32195 146.186 1.48585 146.787 1.67707C147.388 1.84097 147.853 2.05951 148.181 2.33268C148.536 2.57853 148.904 2.89268 149.287 3.27512C149.669 3.65756 149.956 4.10829 150.147 4.62732C150.639 5.80195 150.885 7.15415 150.885 8.6839C150.885 11.1698 150.366 12.9727 149.328 14.0927C148.29 15.2127 146.801 15.9229 144.862 16.2234V17.1659H146.705C147.634 17.1659 148.276 17.3434 148.631 17.6985C148.986 18.0263 149.219 18.6683 149.328 19.6244L150.024 25.4429H152.196V27H142.075V18.3951H135.929V27ZM142.075 15.4449V3.84878H135.929V15.4449H142.075ZM153.457 2.53756V0.980486H171.978L175.748 25.4429H177.469V27H150.753V25.4429H152.433L155.998 2.53756H153.457ZM159.809 3.43902V18.6H164.808L163.455 3.43902H159.809ZM159.809 27H165.586L165.013 20.8537H159.809V27ZM195.276 13.8059V14.7483H197.12C198.048 14.7483 198.663 14.8985 198.963 15.199C199.291 15.4995 199.551 16.1278 199.742 17.0839L201.381 25.4429H203.717V27H193.596L191.137 15.3629H188.269V27H177.656V25.4429H179.459V2.53756H177.656V0.980486H188.269V13.1093H191.26L193.596 0.980486H203.307V2.53756H201.176L198.554 11.2244C198.117 12.7541 197.024 13.6146 195.276 13.8059ZM227.437 0.980486V9.50341H222.643L221.619 3.84878H219.283L220.185 10.7327V25.4429H223.627V27H207.933V25.4429H211.375V10.7327L212.276 3.84878H209.941L208.916 9.74927H204.122V0.980486H227.437ZM252.232 11.6751V16.2644C252.232 18.4771 251.972 20.4712 251.453 22.2468C251.125 23.3668 250.374 24.5141 249.2 25.6888C248.68 26.2078 247.588 26.7132 245.921 27.2049C244.638 27.5873 241.92 27.7102 237.767 27.5737C235.964 27.519 234.803 27.4098 234.284 27.2459C233.793 27.082 233.233 26.8771 232.604 26.6312C232.003 26.358 231.525 26.0439 231.17 25.6888C230.842 25.3063 230.474 24.8283 230.064 24.2546C229.681 23.681 229.395 23.0117 229.203 22.2468C228.712 20.4985 228.466 18.5044 228.466 16.2644V11.6751C228.466 9.48976 228.712 7.65951 229.203 6.18439C229.695 4.68195 230.255 3.56195 230.883 2.82439C231.512 2.05951 232.481 1.48585 233.793 1.10341C235.104 0.720975 236.197 0.502439 237.071 0.447805C237.945 0.39317 239.024 0.365853 240.308 0.365853C241.619 0.365853 242.493 0.379511 242.93 0.406828C243.367 0.406828 243.968 0.434145 244.733 0.48878C245.525 0.543414 246.126 0.639023 246.536 0.775608C246.946 0.912194 247.451 1.11707 248.052 1.39024C248.68 1.6361 249.159 1.95024 249.486 2.33268C249.841 2.6878 250.21 3.15219 250.593 3.72585C251.002 4.29951 251.303 4.95512 251.494 5.69268C251.986 7.41366 252.232 9.4078 252.232 11.6751ZM243.422 24.6644V3.27512H237.276V24.6644H243.422ZM264.898 27H254.285V25.4429H256.088V2.53756H254.285V0.980486H268.709C271.44 0.980486 273.148 1.04878 273.831 1.18536C274.514 1.32195 275.156 1.48585 275.757 1.67707C276.357 1.84097 276.822 2.05951 277.15 2.33268C277.505 2.57853 277.874 2.89268 278.256 3.27512C278.638 3.65756 278.925 4.10829 279.117 4.62732C279.608 5.80195 279.854 7.15415 279.854 8.6839C279.854 11.1698 279.335 12.9727 278.297 14.0927C277.259 15.2127 275.77 15.9229 273.831 16.2234V17.1659H275.675C276.603 17.1659 277.245 17.3434 277.6 17.6985C277.956 18.0263 278.188 18.6683 278.297 19.6244L278.994 25.4429H281.165V27H271.044V18.3951H264.898V27ZM271.044 15.4449V3.84878H264.898V15.4449H271.044Z" fill="#FF7420"/>
</svg>
