<svg width="15" height="15" viewBox="0 0 15 15" fill="none" xmlns="http://www.w3.org/2000/svg">
<g id="ArrowRight">
<path id="Vector" fill-rule="evenodd" clip-rule="evenodd" d="M7.71975 2.46971C7.8604 2.32911 8.05113 2.25012 8.25 2.25012C8.44887 2.25012 8.6396 2.32911 8.78025 2.46971L13.2803 6.96971C13.4209 7.11036 13.4998 7.30109 13.4998 7.49996C13.4998 7.69883 13.4209 7.88957 13.2803 8.03021L8.78025 12.5302C8.6388 12.6668 8.44935 12.7424 8.2527 12.7407C8.05605 12.739 7.86794 12.6601 7.72889 12.5211C7.58983 12.382 7.51095 12.1939 7.50924 11.9973C7.50754 11.8006 7.58313 11.6112 7.71975 11.4697L10.9395 8.24996H2.25C2.05109 8.24996 1.86032 8.17094 1.71967 8.03029C1.57902 7.88964 1.5 7.69887 1.5 7.49996C1.5 7.30105 1.57902 7.11028 1.71967 6.96963C1.86032 6.82898 2.05109 6.74996 2.25 6.74996H10.9395L7.71975 3.53021C7.57915 3.38957 7.50016 3.19883 7.50016 2.99996C7.50016 2.80109 7.57915 2.61036 7.71975 2.46971Z" fill="white"/>
</g>
</svg>
