<svg width="30" height="30" viewBox="0 0 30 30" fill="none" xmlns="http://www.w3.org/2000/svg">
<path d="M28 6.93703C27.043 7.36203 26.015 7.64803 24.936 7.77703C26.038 7.11703 26.883 6.07204 27.281 4.82604C26.251 5.43704 25.109 5.88103 23.893 6.12103C22.92 5.08404 21.534 4.43604 20 4.43604C17.054 4.43604 14.666 6.82504 14.666 9.77004C14.666 10.188 14.714 10.596 14.804 10.985C10.371 10.763 6.441 8.63903 3.809 5.41103C3.351 6.19903 3.088 7.11503 3.088 8.09403C3.088 9.94403 4.029 11.577 5.46 12.533C4.586 12.505 3.763 12.265 3.044 11.866C3.044 11.889 3.044 11.91 3.044 11.933C3.044 14.518 4.882 16.674 7.323 17.163C6.876 17.285 6.404 17.35 5.917 17.35C5.574 17.35 5.239 17.316 4.914 17.255C5.593 19.374 7.563 20.917 9.897 20.96C8.072 22.391 5.772 23.244 3.272 23.244C2.842 23.244 2.417 23.219 1.999 23.169C4.36 24.682 7.163 25.565 10.176 25.565C19.988 25.565 25.352 17.437 25.352 10.388C25.352 10.157 25.347 9.92703 25.337 9.69803C26.38 8.94503 27.285 8.00603 28 6.93703Z" fill="white"/>
</svg>
